# Blender 4.4.0
# www.blender.org
mtllib BarcoSolo.mtl
o Cube.011
v 0.002665 -0.559654 -0.571922
v -0.000456 0.096868 -1.205854
v -0.714789 0.060813 -0.617414
v 0.714187 0.067608 -0.617414
v 0.001247 -0.261273 -1.033922
v 0.543802 -0.262466 -0.564549
v -0.541273 -0.267627 -0.564549
v -0.911319 0.131922 -0.764943
v -0.000815 0.172177 -1.385090
v 0.910031 0.140583 -0.764943
v -0.444532 -0.171506 -0.571798
v 0.446151 -0.167270 -0.571798
v 0.000253 -0.052328 -0.988631
v -0.000017 0.004556 -1.103911
v 0.647376 -0.025486 -0.586008
v -0.647096 -0.031642 -0.586008
v -0.000347 0.073846 -1.353791
v 0.881351 0.075796 -0.765190
v -0.882024 0.067411 -0.765190
v -0.453317 0.149880 -1.070700
v 0.002042 -0.428614 -0.926631
v 0.002878 -0.604273 0.039176
v -0.905820 0.127885 0.041982
v 0.451879 0.154185 -1.070700
v 0.904571 0.136494 0.041982
v -0.307874 -0.422004 -0.552292
v 0.311881 -0.419057 -0.552292
v 0.000039 -0.007397 -1.195879
v 0.722774 -0.006925 -0.638470
v -0.722667 -0.013798 -0.638470
v -0.642927 -0.275063 0.040442
v 0.645522 -0.268937 0.040442
v 0.318676 -0.254213 -0.924611
v -0.316235 -0.257232 -0.924611
v -0.366767 0.107127 -0.954266
v -0.698551 0.065135 -0.358365
v 0.365740 0.110611 -0.954266
v 0.697908 0.071775 -0.358365
v 0.000900 -0.188469 -0.439900
v -0.277261 -0.103595 -0.891269
v -0.514188 -0.181466 0.040261
v 0.278242 -0.100953 -0.891269
v 0.515899 -0.176567 0.040261
v -0.329031 -0.039464 -0.925678
v -0.678499 -0.038916 -0.361466
v 0.678847 -0.032461 -0.361466
v 0.329400 -0.036332 -0.925678
v -0.000581 0.123012 -1.369441
v 0.895691 0.108190 -0.765067
v -0.896671 0.099666 -0.765067
v -0.882009 0.064335 0.041739
v 0.881366 0.072721 0.041739
v 0.440502 0.074821 -1.059490
v -0.441186 0.070628 -1.059490
v -0.448626 0.111339 -1.067254
v 0.447555 0.115601 -1.067254
v 0.895706 0.105115 0.041862
v -0.896657 0.096591 0.041862
v -0.347055 -0.441803 0.039801
v 0.351249 -0.438482 0.039801
v 0.229849 -0.376884 -0.860657
v -0.226246 -0.379053 -0.860657
v 0.000635 -0.132587 -0.706447
v 0.001023 -0.214133 0.040127
v -0.827825 -0.017488 0.041427
v 0.827963 -0.009614 0.041427
v 0.411519 -0.005672 -1.050673
v -0.411438 -0.009586 -1.050673
v -0.734562 0.122116 -0.680230
v 0.733376 0.129097 -0.680230
v 0.614111 -0.085732 -0.616043
v -0.613259 -0.091568 -0.616043
v -0.733110 0.124192 0.041965
v 0.731903 0.131159 0.041965
v -0.657956 -0.102083 0.041101
v 0.658906 -0.095821 0.041101
v 0.002688 -0.564313 0.650595
v -0.000411 0.087358 1.289513
v -0.714766 0.055789 0.700841
v 0.714211 0.062584 0.700841
v 0.001285 -0.269462 1.114856
v 0.543824 -0.267078 0.645467
v -0.541251 -0.272238 0.645467
v -0.911290 0.125772 0.848915
v -0.000763 0.161299 1.469317
v 0.910060 0.134433 0.848915
v -0.444510 -0.176171 0.652376
v 0.446174 -0.171935 0.652376
v 0.000290 -0.060173 1.070089
v 0.000024 -0.004174 1.186870
v 0.647399 -0.030268 0.668728
v -0.647074 -0.036424 0.668728
v -0.000296 0.063210 1.437270
v 0.881381 0.069646 0.848669
v -0.881995 0.061260 0.848669
v -0.453276 0.141399 1.154782
v 0.002078 -0.435981 1.006292
v 0.451920 0.145704 1.154782
v -0.307852 -0.426517 0.632026
v 0.311903 -0.423570 0.632026
v 0.000084 -0.016827 1.278743
v 0.722799 -0.012107 0.721328
v -0.722642 -0.018980 0.721328
v 0.318711 -0.261569 1.005590
v -0.316200 -0.264588 1.005590
v -0.366731 0.099535 1.038023
v -0.698537 0.062085 0.441831
v 0.365776 0.103018 1.038023
v 0.697923 0.068726 0.441831
v 0.000918 -0.192129 0.520337
v -0.277227 -0.110697 0.972349
v 0.278275 -0.108055 0.972349
v -0.328996 -0.046834 1.008317
v -0.678484 -0.041986 0.444139
v 0.678861 -0.035531 0.444139
v 0.329435 -0.043703 1.008317
v -0.000530 0.112255 1.453294
v 0.895720 0.102039 0.848792
v -0.896642 0.093516 0.848792
v 0.440542 0.066428 1.142969
v -0.441145 0.062235 1.142969
v -0.448586 0.102885 1.151043
v 0.447595 0.107147 1.151043
v 0.229881 -0.383749 0.940707
v -0.226213 -0.385918 0.940707
v 0.000662 -0.138280 0.787301
v 0.411559 -0.013996 1.133539
v -0.411399 -0.017909 1.133539
v -0.734536 0.116612 0.764123
v 0.733402 0.123592 0.764123
v 0.614134 -0.090741 0.698304
v -0.613236 -0.096577 0.698304
v 0.001178 -0.272790 -0.747316
v -0.006599 1.362431 -0.741085
v 0.055795 -0.272891 -0.652719
v 0.048019 1.362330 -0.646487
v -0.053436 -0.273411 -0.652719
v -0.061212 1.361811 -0.646487
v -0.006430 1.353072 -0.036206
v -0.004286 0.902092 -0.037924
v -0.006441 1.355361 -0.636823
v -0.004297 0.904380 -0.638542
vn -0.5371 -0.2470 -0.8065
vn -0.5365 -0.2512 -0.8057
vn -0.5376 -0.2472 -0.8062
vn -0.5432 -0.1868 -0.8186
vn -0.5473 -0.2073 -0.8108
vn -0.5358 -0.2554 -0.8048
vn -0.1516 0.7920 0.5914
vn -0.3892 0.8147 0.4298
vn -0.4560 0.8883 0.0547
vn 0.5382 -0.2503 -0.8048
vn 0.5388 -0.2460 -0.8057
vn 0.5396 -0.2420 -0.8063
vn 0.5493 -0.2020 -0.8108
vn 0.5449 -0.1816 -0.8186
vn 0.5394 -0.2419 -0.8065
vn 0.9144 -0.4048 -0.0016
vn 0.9397 -0.3419 0.0017
vn -0.9364 -0.3509 0.0017
vn -0.9105 -0.4135 -0.0016
vn -0.5158 -0.8530 -0.0801
vn -0.4145 -0.9079 -0.0620
vn 0.4231 -0.9040 -0.0620
vn 0.5238 -0.8480 -0.0801
vn 0.3628 -0.8895 -0.2776
vn 0.3086 -0.5514 -0.7751
vn 0.5771 -0.7506 -0.3218
vn -0.3544 -0.8930 -0.2776
vn -0.5699 -0.7561 -0.3218
vn -0.3034 -0.5543 -0.7751
vn 0.0924 0.9863 0.1367
vn 0.0383 0.9993 0.0011
vn -0.1018 0.9854 0.1367
vn -0.2105 0.9266 0.3115
vn -0.0478 0.9989 0.0011
vn 0.5867 0.4349 0.6831
vn -0.0046 0.9618 0.2736
vn -0.0252 0.9795 0.1997
vn 0.0159 0.9797 0.1997
vn -0.0562 0.9978 0.0355
vn 0.0467 0.9983 0.0355
vn 0.3814 0.8184 0.4298
vn 0.4475 0.8926 0.0547
vn 0.1441 0.7934 0.5914
vn 0.4432 0.4833 0.7550
vn -0.9149 0.4026 0.0311
vn 0.0001 -0.0298 0.9996
vn -0.4478 0.4791 0.7550
vn -0.5908 0.4293 0.6831
vn -0.5891 -0.8068 -0.0453
vn -0.7966 -0.5896 -0.1333
vn 0.8022 -0.5820 -0.1333
vn 0.5968 -0.8011 -0.0453
vn 0.2881 -0.5153 -0.8072
vn 0.3264 -0.7058 -0.6287
vn 0.3993 -0.8121 -0.4254
vn 0.6793 -0.5562 -0.4787
vn -0.6740 -0.5627 -0.4787
vn -0.3916 -0.8159 -0.4254
vn -0.3197 -0.7089 -0.6287
vn -0.2831 -0.5180 -0.8072
vn 0.2017 0.9286 0.3115
vn 0.8902 0.4552 -0.0190
vn -0.8945 0.4467 -0.0190
vn -0.8294 0.5425 0.1330
vn 0.8242 0.5504 0.1330
vn 0.7979 0.5974 0.0809
vn -0.8035 0.5898 0.0809
vn 0.9608 0.2767 0.0182
vn -0.9634 0.2675 0.0182
vn 0.0048 -0.9995 -0.0317
vn -0.0048 0.9999 -0.0164
vn 0.0015 -0.3206 -0.9472
vn -0.0000 -0.0023 1.0000
vn -0.5371 -0.2532 0.8047
vn -0.5380 -0.2534 0.8040
vn -0.5364 -0.2573 0.8038
vn -0.5431 -0.1930 0.8172
vn -0.5473 -0.2134 0.8093
vn -0.5358 -0.2615 0.8028
vn -0.1491 0.8002 -0.5809
vn -0.3868 0.8198 -0.4222
vn -0.4557 0.8889 -0.0479
vn 0.5382 -0.2564 0.8029
vn 0.5388 -0.2523 0.8037
vn 0.5388 -0.2522 0.8038
vn 0.5493 -0.2082 0.8093
vn 0.5449 -0.1878 0.8172
vn 0.5394 -0.2481 0.8047
vn 0.9397 -0.3419 -0.0043
vn -0.9364 -0.3509 -0.0043
vn -0.5158 -0.8536 0.0736
vn -0.4145 -0.9084 0.0551
vn 0.4231 -0.9044 0.0551
vn 0.5239 -0.8486 0.0736
vn 0.3628 -0.8916 0.2708
vn 0.3087 -0.5572 0.7709
vn 0.5771 -0.7531 0.3161
vn -0.3543 -0.8950 0.2708
vn -0.5699 -0.7585 0.3161
vn -0.3033 -0.5602 0.7709
vn 0.0924 0.9873 -0.1292
vn 0.0383 0.9992 0.0065
vn -0.1018 0.9864 -0.1292
vn -0.2105 0.9290 -0.3044
vn -0.0478 0.9988 0.0065
vn 0.5867 0.4401 -0.6798
vn -0.0046 0.9639 -0.2662
vn -0.0252 0.9810 -0.1923
vn 0.0159 0.9812 -0.1923
vn -0.0562 0.9980 -0.0279
vn 0.0467 0.9985 -0.0279
vn 0.3790 0.8235 -0.4222
vn 0.4472 0.8931 -0.0479
vn 0.1414 0.8016 -0.5809
vn 0.4432 0.4891 -0.7513
vn -0.9149 0.4028 -0.0280
vn 0.0001 -0.0222 -0.9998
vn -0.4478 0.4848 -0.7513
vn -0.5909 0.4345 -0.6798
vn -0.5891 -0.8071 0.0392
vn -0.7966 -0.5906 0.1289
vn 0.8022 -0.5830 0.1289
vn 0.5968 -0.8015 0.0392
vn 0.2881 -0.5214 0.8032
vn 0.3264 -0.7106 0.6233
vn 0.3993 -0.8154 0.4192
vn 0.6793 -0.5599 0.4744
vn -0.6740 -0.5663 0.4744
vn -0.3916 -0.8191 0.4192
vn -0.3197 -0.7137 0.6233
vn -0.2831 -0.5241 0.8032
vn 0.2017 0.9309 -0.3044
vn 0.8902 0.4550 0.0225
vn -0.8945 0.4465 0.0225
vn -0.8294 0.5435 -0.1288
vn 0.8242 0.5514 -0.1288
vn 0.7979 0.5980 -0.0764
vn -0.8035 0.5904 -0.0764
vn 0.9608 0.2768 -0.0161
vn -0.9634 0.2677 -0.0161
vn 0.0048 -0.9997 0.0241
vn -0.0048 0.9997 0.0240
vn 0.0016 -0.3279 0.9447
vn 0.8660 0.0060 -0.5000
vn -0.0000 -0.0038 1.0000
vn -0.0048 1.0000 0.0038
vn -0.8660 -0.0022 -0.5000
vn 0.0048 -1.0000 -0.0038
vn 1.0000 0.0048 -0.0000
vt 0.605112 0.166667
vt 0.615056 0.166667
vt 0.615056 0.208333
vt 0.605112 0.208333
vt 0.625000 0.166667
vt 0.625000 0.208333
vt 0.625000 0.250000
vt 0.615056 0.250000
vt 0.605112 0.250000
vt 0.818042 0.539158
vt 0.795637 0.556576
vt 0.748669 0.567583
vt 0.732977 0.561447
vt 0.703733 0.592027
vt 0.652540 0.591424
vt 0.691574 0.619404
vt 0.654233 0.618013
vt 0.605112 0.500000
vt 0.615056 0.500000
vt 0.615056 0.541667
vt 0.605112 0.541667
vt 0.625000 0.500000
vt 0.625000 0.541667
vt 0.625000 0.583333
vt 0.615056 0.583333
vt 0.605112 0.583333
vt 0.615056 0.625000
vt 0.605112 0.625000
vt 0.625386 0.624861
vt 0.615056 0.125000
vt 0.625000 0.125000
vt 0.605112 0.125000
vt 0.438046 0.124590
vt 0.498519 0.124813
vt 0.499296 0.165126
vt 0.443810 0.163387
vt 0.375000 0.125000
vt 0.375000 0.166667
vt 0.375000 0.583333
vt 0.437500 0.583333
vt 0.438046 0.624590
vt 0.375000 0.625000
vt 0.500000 0.583333
vt 0.498519 0.624813
vt 0.375000 0.500000
vt 0.437500 0.500000
vt 0.458787 0.527199
vt 0.437500 0.541667
vt 0.500000 0.500000
vt 0.501867 0.537423
vt 0.459606 0.193251
vt 0.437500 0.208333
vt 0.501881 0.203897
vt 0.500000 0.250000
vt 0.854907 0.552796
vt 0.875000 0.541667
vt 0.875000 0.583333
vt 0.855092 0.590081
vt 0.875000 0.625000
vt 0.855606 0.625000
vt 0.678016 0.588194
vt 0.750000 0.541667
vt 0.744557 0.552796
vt 0.875000 0.500000
vt 0.804077 0.550620
vt 0.665280 0.616425
vt 0.860476 0.592374
vt 0.845767 0.561447
vt 0.817906 0.567777
vt 0.776195 0.573945
vt 0.825273 0.593580
vt 0.762680 0.594221
vt 0.758245 0.621616
vt 0.824819 0.623868
vt 0.862790 0.625000
vt 0.658692 0.599473
vt 0.658122 0.608644
vt 0.664888 0.608006
vt 0.668241 0.597958
vt 0.857252 0.614069
vt 0.860216 0.614015
vt 0.552523 0.124976
vt 0.552500 0.166474
vt 0.552632 0.583237
vt 0.552523 0.624976
vt 0.552556 0.500000
vt 0.552859 0.541281
vt 0.552826 0.207923
vt 0.552556 0.250000
vt 0.856917 0.601662
vt 0.859566 0.602741
vt 1.000000 0.500000
vt 1.000000 1.000000
vt 0.666667 1.000000
vt 0.666667 0.500000
vt 0.333333 1.000000
vt 0.333333 0.500000
vt 0.457846 0.130000
vt 0.250000 0.490000
vt 0.042154 0.130000
vt -0.000000 1.000000
vt -0.000000 0.500000
vt 0.750000 0.490000
vt 0.957846 0.130000
vt 0.542154 0.130000
vt 0.000000 0.000000
vt 1.000000 0.000000
s 1
usemtl Material.006
f 19/1/1 50/2/1 55/3/2 54/4/3
f 50/2/4 8/5/4 20/6/4 55/3/4
f 55/3/5 20/6/5 9/7/5 48/8/5
f 54/4/3 55/3/2 48/8/6 17/9/6
f 14/10/7 13/11/7 42/12/7 47/13/7
f 47/13/8 42/12/8 12/14/8 71/15/8
f 12/14/9 43/16/9 76/17/9 71/15/9
f 17/18/10 48/19/10 56/20/11 53/21/12
f 48/19/13 9/22/13 24/23/13 56/20/13
f 56/20/14 24/23/14 10/24/14 49/25/14
f 53/21/12 56/20/11 49/25/15 18/26/15
f 18/26/16 49/25/16 57/27/16 52/28/16
f 49/25/17 10/24/17 25/29/17 57/27/17
f 58/30/18 23/31/18 8/5/18 50/2/18
f 51/32/19 58/30/19 50/2/19 19/1/19
f 59/33/20 31/34/20 7/35/20 26/36/20
f 22/37/21 59/33/21 26/36/21 1/38/21
f 1/39/22 27/40/22 60/41/22 22/42/22
f 27/40/23 6/43/23 32/44/23 60/41/23
f 1/45/24 21/46/24 61/47/24 27/48/24
f 5/49/25 33/50/25 61/47/25 21/46/25
f 6/43/26 27/48/26 61/47/26 33/50/26
f 1/38/27 26/36/27 62/51/27 21/52/27
f 7/35/28 34/53/28 62/51/28 26/36/28
f 5/54/29 21/52/29 62/51/29 34/53/29
f 35/55/30 20/56/30 8/57/30 69/58/30
f 8/57/31 23/59/31 73/60/31 69/58/31
f 70/61/32 10/24/32 24/62/32 37/63/32
f 37/63/33 24/62/33 9/64/33 2/65/33
f 74/66/34 25/29/34 10/24/34 70/61/34
f 72/67/35 44/68/35 35/55/35 69/58/35
f 13/11/36 40/69/36 63/70/36 42/12/36
f 11/71/37 39/72/37 63/70/37 40/69/37
f 12/14/38 42/12/38 63/70/38 39/72/38
f 12/14/39 39/72/39 64/73/39 43/16/39
f 39/72/40 11/71/40 41/74/40 64/73/40
f 11/71/41 40/69/41 44/68/41 72/67/41
f 75/75/42 41/74/42 11/71/42 72/67/42
f 44/68/43 40/69/43 13/11/43 14/10/43
f 35/55/44 44/68/44 14/10/44 2/65/44
f 15/76/45 46/77/45 38/78/45 4/79/45
f 36/80/46 45/81/46 46/81/46 38/80/46
f 2/65/47 14/10/47 47/13/47 37/63/47
f 37/63/48 47/13/48 71/15/48 70/61/48
f 65/82/49 51/32/49 19/1/49 30/83/49
f 31/34/50 65/82/50 30/83/50 7/35/50
f 6/43/51 29/84/51 66/85/51 32/44/51
f 29/84/52 18/26/52 52/28/52 66/85/52
f 5/49/53 28/86/53 67/87/53 33/50/53
f 28/86/54 17/18/54 53/21/54 67/87/54
f 67/87/55 53/21/55 18/26/55 29/84/55
f 33/50/56 67/87/56 29/84/56 6/43/56
f 7/35/57 30/83/57 68/88/57 34/53/57
f 30/83/58 19/1/58 54/4/58 68/88/58
f 68/88/59 54/4/59 17/9/59 28/89/59
f 34/53/60 68/88/60 28/89/60 5/54/60
f 2/65/61 9/64/61 20/56/61 35/55/61
f 36/80/62 3/90/62 69/58/62 73/60/62
f 4/79/63 38/78/63 74/66/63 70/61/63
f 15/76/64 4/79/64 70/61/64 71/15/64
f 3/90/65 16/91/65 72/67/65 69/58/65
f 16/91/66 45/81/66 75/75/66 72/67/66
f 46/77/67 15/76/67 71/15/67 76/17/67
f 45/81/68 36/80/68 73/60/68 75/75/68
f 38/78/69 46/77/69 76/17/69 74/66/69
f 45/81/70 16/91/70 15/91/70 46/81/70
f 3/90/71 36/80/71 38/80/71 4/90/71
f 16/91/72 3/90/72 4/90/72 15/91/72
f 52/28/73 57/27/73 25/29/73 74/66/73 76/17/73 43/16/73 64/73/73 41/74/73 75/75/73 73/60/73 23/31/73 58/30/73 51/32/73 65/82/73 31/34/73 59/33/73 22/42/73 60/41/73 32/44/73 66/85/73
f 95/1/74 121/4/75 122/3/76 119/2/74
f 119/2/77 122/3/77 96/6/77 84/5/77
f 122/3/78 117/8/78 85/7/78 96/6/78
f 121/4/75 93/9/79 117/8/79 122/3/76
f 90/10/80 116/13/80 112/12/80 89/11/80
f 116/13/81 131/15/81 88/14/81 112/12/81
f 88/14/82 131/15/82 76/17/82 43/16/82
f 93/18/83 120/21/84 123/20/85 117/19/83
f 117/19/86 123/20/86 98/23/86 85/22/86
f 123/20/87 118/25/87 86/24/87 98/23/87
f 120/21/84 94/26/88 118/25/88 123/20/85
f 94/26/16 52/28/16 57/27/16 118/25/16
f 118/25/89 57/27/89 25/29/89 86/24/89
f 58/30/90 119/2/90 84/5/90 23/31/90
f 51/32/19 95/1/19 119/2/19 58/30/19
f 59/33/91 99/36/91 83/35/91 31/34/91
f 22/37/92 77/38/92 99/36/92 59/33/92
f 77/39/93 22/42/93 60/41/93 100/40/93
f 100/40/94 60/41/94 32/44/94 82/43/94
f 77/45/95 100/48/95 124/47/95 97/46/95
f 81/49/96 97/46/96 124/47/96 104/50/96
f 82/43/97 104/50/97 124/47/97 100/48/97
f 77/38/98 97/52/98 125/51/98 99/36/98
f 83/35/99 99/36/99 125/51/99 105/53/99
f 81/54/100 105/53/100 125/51/100 97/52/100
f 106/55/101 129/58/101 84/57/101 96/56/101
f 84/57/102 129/58/102 73/60/102 23/59/102
f 130/61/103 108/63/103 98/62/103 86/24/103
f 108/63/104 78/65/104 85/64/104 98/62/104
f 74/66/105 130/61/105 86/24/105 25/29/105
f 132/67/106 129/58/106 106/55/106 113/68/106
f 89/11/107 112/12/107 126/70/107 111/69/107
f 87/71/108 111/69/108 126/70/108 110/72/108
f 88/14/109 110/72/109 126/70/109 112/12/109
f 88/14/110 43/16/110 64/73/110 110/72/110
f 110/72/111 64/73/111 41/74/111 87/71/111
f 87/71/112 132/67/112 113/68/112 111/69/112
f 75/75/113 132/67/113 87/71/113 41/74/113
f 113/68/114 90/10/114 89/11/114 111/69/114
f 106/55/115 78/65/115 90/10/115 113/68/115
f 91/76/116 80/79/116 109/78/116 115/77/116
f 107/80/117 109/80/117 115/81/117 114/81/117
f 78/65/118 108/63/118 116/13/118 90/10/118
f 108/63/119 130/61/119 131/15/119 116/13/119
f 65/82/120 103/83/120 95/1/120 51/32/120
f 31/34/121 83/35/121 103/83/121 65/82/121
f 82/43/122 32/44/122 66/85/122 102/84/122
f 102/84/123 66/85/123 52/28/123 94/26/123
f 81/49/124 104/50/124 127/87/124 101/86/124
f 101/86/125 127/87/125 120/21/125 93/18/125
f 127/87/126 102/84/126 94/26/126 120/21/126
f 104/50/127 82/43/127 102/84/127 127/87/127
f 83/35/128 105/53/128 128/88/128 103/83/128
f 103/83/129 128/88/129 121/4/129 95/1/129
f 128/88/130 101/89/130 93/9/130 121/4/130
f 105/53/131 81/54/131 101/89/131 128/88/131
f 78/65/132 106/55/132 96/56/132 85/64/132
f 107/80/133 73/60/133 129/58/133 79/90/133
f 80/79/134 130/61/134 74/66/134 109/78/134
f 91/76/135 131/15/135 130/61/135 80/79/135
f 79/90/136 129/58/136 132/67/136 92/91/136
f 92/91/137 132/67/137 75/75/137 114/81/137
f 115/77/138 76/17/138 131/15/138 91/76/138
f 114/81/139 75/75/139 73/60/139 107/80/139
f 109/78/140 74/66/140 76/17/140 115/77/140
f 114/81/141 115/81/141 91/91/141 92/91/141
f 79/90/142 80/90/142 109/80/142 107/80/142
f 92/91/143 91/91/143 80/90/143 79/90/143
usemtl Material.002
f 133/92/144 134/93/144 136/94/144 135/95/144
f 135/95/145 136/94/145 138/96/145 137/97/145
f 136/98/146 134/99/146 138/100/146
f 137/97/147 138/96/147 134/101/147 133/102/147
f 133/103/148 135/104/148 137/105/148
usemtl Material.001
f 139/106/149 140/107/149 142/93/149 141/101/149
