# Blender 4.4.3
# www.blender.org
mtllib Spray.mtl
o Cylinder.015
v 0.417683 0.035575 -0.344979
v 0.173853 0.090281 -0.434484
v 0.387193 0.052294 -0.251935
v 0.143363 0.107000 -0.341440
v 0.350546 -0.022222 -0.197349
v 0.106716 0.032484 -0.286855
v 0.344390 -0.113457 -0.235807
v 0.100560 -0.058750 -0.325312
v 0.374881 -0.130175 -0.328851
v 0.131051 -0.075469 -0.418356
v 0.411527 -0.055659 -0.383436
v 0.167697 -0.000953 -0.472942
v 0.146218 0.149311 -0.323605
v 0.190849 0.124839 -0.459799
v 0.092576 0.040237 -0.243705
v 0.083565 -0.093308 -0.299998
v 0.128196 -0.117780 -0.436191
v 0.181838 -0.008707 -0.516092
v 0.031690 0.071715 -0.406017
v 0.042316 0.065889 -0.438442
v 0.018919 0.045747 -0.386994
v 0.016774 0.013952 -0.400396
v 0.027399 0.008126 -0.432821
v 0.040171 0.034094 -0.451844
v -0.022403 0.083852 -0.425873
v -0.011777 0.078026 -0.458299
v -0.035174 0.057883 -0.406850
v -0.037320 0.026089 -0.420253
v -0.026694 0.020262 -0.452678
v -0.013923 0.046231 -0.471701
v 0.064069 -0.068695 -0.446170
v 0.103982 0.012462 -0.505620
v 0.037566 0.048879 -0.302949
v 0.030861 -0.050486 -0.344834
v 0.110686 0.111827 -0.463735
v 0.077479 0.130036 -0.362399
vn 0.3695 0.7506 -0.5478
vn 0.0635 0.9192 0.3887
vn -0.3057 0.1701 0.9368
vn -0.3695 -0.7506 0.5478
vn -0.0635 -0.9192 -0.3887
vn 0.9188 -0.2044 0.3378
vn 0.3057 -0.1701 -0.9368
vn -0.3531 0.0001 -0.9356
vn -0.6359 -0.5753 -0.5144
vn -0.8165 -0.3045 -0.4905
vn -0.6249 0.0859 -0.7760
vn -0.8716 -0.4455 0.2044
vn -0.8233 0.2616 0.5037
vn -0.9439 0.2632 0.1996
vn -0.9763 -0.2162 -0.0032
vn -0.5393 0.8380 0.0828
vn -0.3046 0.7078 -0.6374
vn -0.5923 0.5656 -0.5739
vn -0.7515 0.6541 -0.0857
vn -0.9188 0.2044 -0.3378
vn -0.6924 0.2448 0.6787
vn -0.3637 0.9116 0.1915
vn -0.4761 -0.7236 -0.4998
vn -0.7487 -0.5736 0.3323
vn -0.0920 0.7612 -0.6419
vn -0.1485 -0.0577 -0.9872
vt 0.637702 0.437045
vt 0.637702 0.018942
vt 0.716717 -0.000000
vt 0.716718 0.418103
vt 0.400656 0.855148
vt 0.400656 0.437045
vt 0.479671 0.455987
vt 0.479671 0.874090
vt 0.637702 0.455987
vt 0.637702 0.874090
vt 0.716717 0.437045
vt 0.716717 0.855148
vt 0.200328 0.073288
vt 0.063469 0.152303
vt -0.000000 0.115659
vt 0.200328 -0.000000
vt 0.400656 0.418103
vt 0.400656 -0.000000
vt 0.479671 0.018942
vt 0.479671 0.437045
vt 0.716718 0.079015
vt 0.853576 0.000000
vt 0.990435 0.079015
vt 0.990435 0.237046
vt 0.853576 0.316062
vt 0.716718 0.237046
vt 0.298110 0.720809
vt 0.149055 0.806866
vt 0.149055 0.689824
vt 0.196750 0.662288
vt 0.063469 0.310334
vt 0.200328 0.389349
vt 0.200328 0.462637
vt 0.000000 0.346978
vt 0.337187 0.310334
vt 0.337187 0.152303
vt 0.400656 0.115659
vt 0.400656 0.346978
vt 0.397467 0.490174
vt 0.397467 0.545247
vt 0.304712 0.545247
vt 0.304712 0.490174
vt -0.000000 0.720808
vt 0.000000 0.548694
vt 0.101361 0.607215
vt 0.101360 0.662288
vt 0.149055 0.462637
vt 0.298110 0.548694
vt 0.196750 0.607215
vt 0.149055 0.579678
vt 0.345805 0.682929
vt 0.393500 0.710466
vt 0.393500 0.765539
vt 0.345805 0.793075
vt 0.298110 0.765539
vt 0.298110 0.710466
vt 0.304711 0.682929
vt 0.298110 0.655393
vt 0.390866 0.655393
vt 0.397467 0.682929
vt 0.298110 0.600320
vt 0.304712 0.572783
vt 0.397467 0.572783
vt 0.390866 0.600320
vt 0.390866 0.572783
vt 0.298110 0.572783
vt 0.390866 0.462637
vt 0.298110 0.462637
vt 0.858359 0.431721
vt 0.886086 0.316062
vt 1.000000 0.375266
vt 0.979370 0.461323
vt 0.886085 0.778699
vt 0.858359 0.663040
vt 0.979370 0.633437
vt 1.000000 0.719494
vt 0.858359 0.431721
vt 0.858359 0.663040
vt 0.737348 0.633437
vt 0.737348 0.461323
vt 0.830632 0.316061
vt 0.716717 0.375266
vt 0.830632 0.778699
vt 0.716717 0.719494
s 1
usemtl Material.007
f 1/1/1 2/2/1 4/3/2 3/4/2
f 3/5/2 4/6/2 6/7/3 5/8/3
f 5/8/3 6/7/3 8/9/4 7/10/4
f 7/10/4 8/9/4 10/11/5 9/12/5
f 2/13/6 12/14/6 18/15/6 14/16/6
f 9/17/5 10/18/5 12/19/7 11/20/7
f 11/20/7 12/19/7 2/2/1 1/1/1
f 1/21/6 3/22/6 5/23/6 7/24/6 9/25/6 11/26/6
f 32/27/8 31/28/9 23/29/10 24/30/11
f 10/31/6 8/32/6 16/33/6 17/34/6
f 6/35/6 4/36/6 13/37/6 15/38/6
f 12/14/6 10/31/6 17/34/6 18/15/6
f 4/36/6 2/13/6 14/16/6 13/37/6
f 8/32/6 6/35/6 15/38/6 16/33/6
f 20/39/1 24/40/7 30/41/7 26/42/1
f 34/43/12 33/44/13 21/45/14 22/46/15
f 36/47/16 35/48/17 20/49/18 19/50/19
f 35/48/17 32/27/8 24/30/11 20/49/18
f 31/28/9 34/43/12 22/46/15 23/29/10
f 33/44/13 36/47/16 19/50/19 21/45/14
f 25/51/20 26/52/20 30/53/20 29/54/20 28/55/20 27/56/20
f 23/57/5 22/58/4 28/59/4 29/60/5
f 21/61/3 19/62/2 25/63/2 27/64/3
f 24/40/7 23/65/5 29/66/5 30/41/7
f 22/58/4 21/61/3 27/64/3 28/59/4
f 19/67/2 20/39/1 26/42/1 25/68/2
f 15/69/21 13/70/22 36/71/16 33/72/13
f 17/73/23 16/74/24 34/75/12 31/76/9
f 14/77/25 18/78/26 32/79/8 35/80/17
f 13/81/22 14/77/25 35/80/17 36/82/16
f 16/74/24 15/69/21 33/72/13 34/75/12
f 18/78/26 17/83/23 31/84/9 32/79/8
