# Blender 4.4.3
# www.blender.org
mtllib cigarrosuicida.mtl
o Cylinder.018
v -0.174124 0.112315 0.073932
v 0.193964 -0.078140 -0.067842
v -0.186491 0.107941 0.048079
v 0.181596 -0.082515 -0.093695
v -0.195476 0.085997 0.053746
v 0.172612 -0.104458 -0.088028
v -0.188661 0.076810 0.083102
v 0.179426 -0.113645 -0.058672
v -0.175465 0.093075 0.095577
v 0.192623 -0.097380 -0.046196
vn 0.3389 0.8875 -0.3123
vn -0.3924 -0.0761 -0.9166
vn -0.4995 -0.8530 -0.1510
vn 0.8408 -0.4294 -0.3296
vn -0.0066 -0.6052 0.7960
vn 0.5395 0.6125 0.5778
vn -0.8408 0.4294 0.3296
vt 0.251001 0.498999
vt 0.748999 0.498999
vt 0.748999 0.251001
vt 0.251001 0.251001
vt 0.248999 0.498999
vt 0.248999 0.001001
vt 0.001001 0.001001
vt 0.001001 0.498999
vt 0.001001 0.748999
vt 0.498999 0.748999
vt 0.498999 0.501001
vt 0.001001 0.501001
vt 0.248999 0.983373
vt 0.095728 0.998999
vt 0.001001 0.855385
vt 0.095728 0.751001
vt 0.248999 0.830102
vt 0.998999 0.498999
vt 0.998999 0.001001
vt 0.751001 0.001001
vt 0.751001 0.498999
vt 0.251001 0.248999
vt 0.748999 0.248999
vt 0.748999 0.001001
vt 0.251001 0.001001
vt 0.595728 0.748999
vt 0.501001 0.605385
vt 0.595728 0.501001
vt 0.748999 0.580102
vt 0.748999 0.733373
s 1
usemtl Material.001
f 1/1/1 2/2/1 4/3/1 3/4/1
f 3/5/2 4/6/2 6/7/2 5/8/2
f 5/9/3 6/10/3 8/11/3 7/12/3
f 4/13/4 2/14/4 10/15/4 8/16/4 6/17/4
f 7/18/5 8/19/5 10/20/5 9/21/5
f 9/22/6 10/23/6 2/24/6 1/25/6
f 1/26/7 3/27/7 5/28/7 7/29/7 9/30/7
